<svg width="191" height="39" viewBox="0 0 191 39" fill="none" xmlns="http://www.w3.org/2000/svg">
<path fill-rule="evenodd" clip-rule="evenodd" d="M5.22852 11.9811C5.58162 11.65 5.94783 11.3354 6.32594 11.038L6.46 5.31C6.46 5.31 6.51 2.25 7.18 2C7.85 1.75 9.24 3 10.03 5.69C14.2675 5.18957 18.5418 5.07577 22.8 5.35C23.0067 3.98539 23.4109 2.65814 24 1.41C24.75 0.36 24.89 1.65 24.89 1.65C25.4059 4.53495 25.78 7.4419 26.0115 10.3604C28.8033 12.2606 30.9578 14.9684 32.18 18.13C30.1848 18.4753 28.238 19.0567 26.3807 19.8619C26.6488 19.7526 27.2799 19.5007 28.1 19.21C27.8493 19.9425 27.4625 20.621 26.96 21.21C25.124 23.3134 23.1389 25.2819 21.02 27.1C19.22 28.5 16.81 30.22 15.95 30.36C11.0867 28.8726 6.86882 25.7865 3.9794 21.6027L0.19 21.39C0.792968 17.7863 2.56325 14.4804 5.22852 11.9811ZM26.18 19.95L26.2325 19.9268C24.4398 21.5485 22.749 23.2795 21.17 25.11C19.5986 26.9361 17.8238 28.5768 15.88 30C15.66 29.47 14.26 28.49 14.26 28.49C14.26 28.49 11.13 26.35 9.08 24.67C7.98994 23.7507 6.95858 22.7639 5.99199 21.7156L6.07 21.72V19.46C12.7536 18.5423 19.4937 18.0979 26.24 18.13C26.24 18.73 26.24 19.34 26.18 19.95ZM27.24 25.23C27.0938 25.3913 26.9623 25.5311 26.8443 25.6566C26.0257 26.5269 25.85 26.7136 25.85 28.68V37.86C28.1425 36.346 30.0245 34.2879 31.328 31.8694C32.6315 29.4509 33.3158 26.7474 33.32 24C33.3068 22.9591 33.1997 21.9216 33 20.9C30.9282 22.1295 28.9968 23.5814 27.24 25.23ZM1.17 24.89C2.57 25.28 6.36 26.72 6.36 26.72L8.68 38.61C6.14326 37.2296 4.00919 35.2131 2.48739 32.7586C0.965588 30.3041 0.108395 27.496 0 24.61C0.396097 24.6757 0.787067 24.7693 1.17 24.89ZM17.84 20.2C17.5967 20.6443 17.2135 20.9958 16.75 21.2C16.3442 21.0279 15.9613 20.8062 15.61 20.54C15.32 20.26 15.27 19.9 15.66 19.54C16.1765 19.2116 16.7979 19.0902 17.4 19.2C17.84 19.29 18.12 19.55 17.84 20.2ZM12.5471 22.3873C12.4886 22.3172 12.4329 22.2447 12.38 22.17C12.3667 22.157 12.3561 22.1414 12.3489 22.1242C12.3417 22.1071 12.338 22.0886 12.338 22.07C12.338 22.0514 12.3417 22.0329 12.3489 22.0158C12.3561 21.9986 12.3667 21.983 12.38 21.97C12.393 21.9567 12.4086 21.9461 12.4258 21.9389C12.4429 21.9317 12.4614 21.928 12.48 21.928C12.4986 21.928 12.5171 21.9317 12.5342 21.9389C12.5514 21.9461 12.567 21.9567 12.58 21.97C13.0848 22.6642 13.843 23.1313 14.69 23.27C15.0217 23.245 15.3426 23.1413 15.6261 22.9674C15.9096 22.7934 16.1475 22.5544 16.32 22.27L16.46 22.08L16.56 22.29C16.56 22.29 16.93 23.05 17.56 23.09C18.19 23.13 18.61 22.68 19.17 21.81C19.183 21.7967 19.1986 21.7861 19.2158 21.7789C19.2329 21.7717 19.2514 21.768 19.27 21.768C19.2886 21.768 19.3071 21.7717 19.3242 21.7789C19.3414 21.7861 19.357 21.7967 19.37 21.81C19.4023 21.8306 19.4255 21.8629 19.4348 21.9C19.4441 21.9372 19.4388 21.9766 19.42 22.01C18.78 23.01 18.15 23.45 17.54 23.41C17.308 23.3763 17.0867 23.2904 16.8927 23.1587C16.7877 23.0875 16.6922 23.0039 16.6081 22.91C17.115 23.8273 17.3556 24.87 17.3 25.92C17.24 26.3 16.92 27.7 15.1 27.05C13.4376 26.4563 12.6679 22.984 12.5471 22.3873ZM90 26.2308C89.9253 27.7627 90.3695 29.2762 91.2645 30.5385C92.0548 31.5385 93.4773 32 95.374 32.0769C97.2707 32.0769 98.6143 31.6154 99.4045 30.6923C100.251 29.5852 100.67 28.2238 100.59 26.8462V25.3077H96.7175V27.1538C96.7405 27.7019 96.6601 28.2494 96.4804 28.7692C96.3224 29.1538 96.0063 29.3077 95.4531 29.3077C94.8998 29.3077 94.5047 29.1538 94.3466 28.7692C94.0978 28.267 93.9888 27.71 94.0305 27.1538V18.9231C94.0086 18.3499 94.0888 17.7773 94.2676 17.2308C94.4257 16.8462 94.8208 16.6923 95.374 16.6923C95.6005 16.6757 95.8269 16.7255 96.024 16.8351C96.2212 16.9448 96.3802 17.1094 96.4804 17.3077C96.6681 17.799 96.7488 18.3229 96.7175 18.8462V20.6154H100.59V19.0769C100.685 17.7214 100.263 16.3794 99.4045 15.3077C98.6143 14.4615 97.3498 14 95.374 14C93.3983 14 92.0548 14.4615 91.1855 15.4615C90.3081 16.7575 89.8916 18.2977 90 19.8462V26.2308ZM105.253 14.2308H109.757L113.077 31.7692H109.441L108.809 28.0769H106.201L105.569 31.7692H101.854L105.253 14.2308ZM108.493 25.7692L107.545 18.9231L106.596 25.7692H108.493ZM113.156 17.1538H115.843V31.7692H119.873V17.0769H122.56V14.2308H113.156V17.1538ZM129.752 14.2308H136.707V16.0769H132.202V21.8462H135.837V23.6154H132.202V30.0769H136.707V31.8462H129.673V14.2308H129.752ZM140.5 14.2308H138.761V31.7692H140.895V19.7692L146.111 31.7692H147.692V14.2308H145.637V25.8462L140.5 14.2308ZM150.063 14.2308H157.017V16.0769H152.513V21.8462H156.148V23.6154H152.513V30.0769H157.017V31.8462H150.063V14.2308ZM162.707 14.2308H159.072H158.993V31.6923H161.522V23.4615H163.498L165.869 31.6923H168.318L165.79 22.9231C167.291 22.4615 168.002 21.0769 168.002 18.8462C168.002 17.2308 167.607 16 166.738 15.3077C165.559 14.5144 164.137 14.1346 162.707 14.2308ZM164.841 21.1538C164.176 21.6165 163.364 21.8346 162.549 21.7692V21.6923H161.601V15.9231H162.707C163.304 15.8836 163.902 15.9893 164.446 16.2308C164.832 16.4373 165.137 16.7617 165.315 17.1538C165.494 17.7004 165.574 18.273 165.552 18.8462C165.552 20 165.315 20.7692 164.841 21.1538ZM171.164 30.4615C170.342 29.1166 169.956 27.5617 170.057 26V20.1538C170.038 19.0391 170.17 17.9268 170.452 16.8462C170.717 16.0386 171.244 15.3367 171.954 14.8462C172.836 14.3377 173.854 14.0967 174.878 14.1538C176.538 14.1538 177.723 14.5385 178.434 15.3846C179.252 16.5019 179.644 17.8624 179.541 19.2308V19.8462H177.17V19.3077C177.173 18.6635 177.12 18.0201 177.012 17.3846C176.945 16.983 176.718 16.6235 176.379 16.3846C175.935 16.1008 175.408 15.9658 174.878 16C174.311 15.9647 173.75 16.1284 173.297 16.4615C173.111 16.614 172.959 16.8018 172.851 17.0134C172.742 17.2251 172.679 17.4561 172.665 17.6923C172.561 18.38 172.508 19.0741 172.507 19.7692V26.3077C172.449 27.3038 172.61 28.3006 172.981 29.2308C173.297 29.8462 173.93 30.0769 174.878 30.0769C175.252 30.1223 175.632 30.0589 175.97 29.8947C176.307 29.7304 176.587 29.4727 176.775 29.1538C177.192 28.1811 177.381 27.1299 177.328 26.0769V24.8462H175.036V23.0769H179.62V31.7692H178.039L177.802 29.7692C177.595 30.4395 177.163 31.0231 176.576 31.4273C175.989 31.8315 175.28 32.0331 174.562 32C173.909 32.0374 173.256 31.9164 172.663 31.6479C172.07 31.3794 171.555 30.9717 171.164 30.4615ZM180.805 14.3077L184.678 25.6154H184.757V31.7692H187.128V25.6154L191 14.3077H188.629L185.942 22.7692L183.176 14.3077H180.805Z" fill="#111111"/>
</svg>
