<svg width="191" height="39" viewBox="0 0 191 39" fill="none" xmlns="http://www.w3.org/2000/svg">
<path fill-rule="evenodd" clip-rule="evenodd" d="M6.32594 11.038C5.94783 11.3354 5.58162 11.65 5.22852 11.9811C2.56325 14.4804 0.792968 17.7863 0.19 21.39L3.9794 21.6027C6.86882 25.7865 11.0867 28.8726 15.95 30.36C16.81 30.22 19.22 28.5 21.02 27.1C23.1389 25.2819 25.124 23.3134 26.96 21.21C27.4625 20.621 27.8493 19.9425 28.1 19.21C27.28 19.5007 26.6489 19.7526 26.3808 19.8619C28.2381 19.0567 30.1848 18.4753 32.18 18.13C30.9578 14.9684 28.8033 12.2606 26.0115 10.3604C25.78 7.44189 25.4059 4.53495 24.89 1.65C24.89 1.65 24.75 0.36 24 1.41C23.4109 2.65814 23.0067 3.98539 22.8 5.35C18.5418 5.07577 14.2675 5.18957 10.03 5.69C9.24 3 7.85 1.75 7.18 2C6.51 2.25 6.46 5.31 6.46 5.31L6.32594 11.038ZM26.2325 19.9268C26.215 19.9345 26.1975 19.9422 26.18 19.95C26.24 19.34 26.24 18.73 26.24 18.13C19.4937 18.0979 12.7536 18.5423 6.07 19.46V21.72L5.99199 21.7156C6.95858 22.7639 7.98994 23.7507 9.08 24.67C11.13 26.35 14.26 28.49 14.26 28.49C14.26 28.49 15.66 29.47 15.88 30C17.8238 28.5768 19.5986 26.9361 21.17 25.11C22.749 23.2795 24.4398 21.5485 26.2325 19.9268ZM91.2645 30.5385C90.3695 29.2762 89.9253 27.7627 90 26.2308V19.8462C89.8916 18.2977 90.3081 16.7575 91.1855 15.4615C92.0548 14.4615 93.3983 14 95.374 14C97.3498 14 98.6143 14.4615 99.4045 15.3077C100.263 16.3794 100.685 17.7214 100.59 19.0769V20.6154H96.7175V18.8462C96.7488 18.3229 96.6681 17.799 96.4804 17.3077C96.3802 17.1094 96.2212 16.9448 96.024 16.8351C95.8269 16.7255 95.6005 16.6757 95.374 16.6923C94.8208 16.6923 94.4257 16.8462 94.2676 17.2308C94.0888 17.7773 94.0086 18.3499 94.0305 18.9231V27.1538C93.9888 27.71 94.0978 28.267 94.3466 28.7692C94.5047 29.1538 94.8998 29.3077 95.4531 29.3077C96.0063 29.3077 96.3224 29.1538 96.4804 28.7692C96.6601 28.2494 96.7405 27.7019 96.7175 27.1538V25.3077H100.59V26.8462C100.67 28.2238 100.251 29.5852 99.4045 30.6923C98.6143 31.6154 97.2707 32.0769 95.374 32.0769C93.4773 32 92.0548 31.5385 91.2645 30.5385ZM105.253 14.2308H109.757L113.077 31.7692H109.441L108.809 28.0769H106.201L105.569 31.7692H101.854L105.253 14.2308ZM108.493 25.7692L107.545 18.9231L106.596 25.7692H108.493ZM113.156 17.1538H115.843V31.7692H119.873V17.0769H122.56V14.2308H113.156V17.1538ZM129.752 14.2308H136.707V16.0769H132.202V21.8462H135.837V23.6154H132.202V30.0769H136.707V31.8462H129.673V14.2308H129.752ZM140.5 14.2308H138.761V31.7692H140.895V19.7692L146.111 31.7692H147.692V14.2308H145.637V25.8462L140.5 14.2308ZM150.063 14.2308H157.017V16.0769H152.513V21.8462H156.148V23.6154H152.513V30.0769H157.017V31.8462H150.063V14.2308ZM162.707 14.2308H159.072H158.993V31.6923H161.522V23.4615H163.498L165.869 31.6923H168.318L165.79 22.9231C167.291 22.4615 168.002 21.0769 168.002 18.8462C168.002 17.2308 167.607 16 166.738 15.3077C165.559 14.5144 164.137 14.1346 162.707 14.2308ZM164.841 21.1538C164.176 21.6165 163.364 21.8346 162.549 21.7692V21.6923H161.601V15.9231H162.707C163.304 15.8836 163.902 15.9893 164.446 16.2308C164.832 16.4373 165.137 16.7617 165.315 17.1538C165.494 17.7004 165.574 18.273 165.552 18.8462C165.552 20 165.315 20.7692 164.841 21.1538ZM171.164 30.4615C170.342 29.1166 169.956 27.5617 170.057 26V20.1538C170.038 19.0391 170.17 17.9268 170.452 16.8462C170.717 16.0386 171.244 15.3367 171.954 14.8462C172.836 14.3377 173.854 14.0967 174.878 14.1538C176.538 14.1538 177.723 14.5385 178.434 15.3846C179.252 16.5019 179.644 17.8624 179.541 19.2308V19.8462H177.17V19.3077C177.173 18.6635 177.12 18.0201 177.012 17.3846C176.945 16.983 176.718 16.6235 176.379 16.3846C175.935 16.1008 175.408 15.9658 174.878 16C174.311 15.9647 173.75 16.1284 173.297 16.4615C173.111 16.614 172.959 16.8018 172.851 17.0134C172.742 17.2251 172.679 17.4561 172.665 17.6923C172.561 18.38 172.508 19.0741 172.507 19.7692V26.3077C172.449 27.3038 172.61 28.3006 172.981 29.2308C173.297 29.8462 173.93 30.0769 174.878 30.0769C175.252 30.1223 175.632 30.0589 175.97 29.8947C176.307 29.7304 176.587 29.4727 176.775 29.1538C177.192 28.1811 177.381 27.1299 177.328 26.0769V24.8462H175.036V23.0769H179.62V31.7692H178.039L177.802 29.7692C177.595 30.4395 177.163 31.0231 176.576 31.4273C175.989 31.8315 175.28 32.0331 174.562 32C173.909 32.0374 173.256 31.9164 172.663 31.6479C172.07 31.3794 171.555 30.9717 171.164 30.4615ZM180.805 14.3077L184.678 25.6154H184.757V31.7692H187.128V25.6154L191 14.3077H188.629L185.942 22.7692L183.176 14.3077H180.805ZM26.8443 25.6566L26.8443 25.6565L26.8444 25.6565L26.8444 25.6565C26.9624 25.531 27.0938 25.3913 27.24 25.23C28.9968 23.5814 30.9282 22.1295 33 20.9C33.1997 21.9216 33.3068 22.9591 33.32 24C33.3158 26.7474 32.6315 29.4509 31.328 31.8694C30.0245 34.2879 28.1425 36.346 25.85 37.86V28.68C25.85 26.7136 26.0257 26.5269 26.8443 25.6566ZM6.36 26.72C6.36 26.72 2.57 25.28 1.17 24.89C0.787067 24.7693 0.396097 24.6757 0 24.61C0.108395 27.496 0.965588 30.3041 2.48739 32.7586C4.00919 35.2131 6.14326 37.2296 8.68 38.61L6.36 26.72ZM16.75 21.2C17.2135 20.9958 17.5967 20.6443 17.84 20.2C18.12 19.55 17.84 19.29 17.4 19.2C16.7979 19.0902 16.1765 19.2116 15.66 19.54C15.27 19.9 15.32 20.26 15.61 20.54C15.9613 20.8062 16.3442 21.0279 16.75 21.2ZM12.38 22.17C12.4329 22.2447 12.4886 22.3172 12.5471 22.3873C12.6679 22.984 13.4376 26.4563 15.1 27.05C16.92 27.7 17.24 26.3 17.3 25.92C17.3556 24.87 17.115 23.8273 16.6081 22.91C16.6922 23.0039 16.7877 23.0875 16.8927 23.1587C17.0867 23.2904 17.308 23.3763 17.54 23.41C18.15 23.45 18.78 23.01 19.42 22.01C19.4388 21.9766 19.4441 21.9372 19.4348 21.9C19.4255 21.8629 19.4023 21.8306 19.37 21.81C19.357 21.7967 19.3414 21.7861 19.3242 21.7789C19.3071 21.7717 19.2886 21.768 19.27 21.768C19.2514 21.768 19.2329 21.7717 19.2158 21.7789C19.1986 21.7861 19.183 21.7967 19.17 21.81C18.61 22.68 18.19 23.13 17.56 23.09C16.93 23.05 16.56 22.29 16.56 22.29L16.46 22.08L16.32 22.27C16.1475 22.5544 15.9096 22.7934 15.6261 22.9674C15.3426 23.1413 15.0217 23.245 14.69 23.27C13.843 23.1313 13.0848 22.6642 12.58 21.97C12.567 21.9567 12.5514 21.9461 12.5342 21.9389C12.5171 21.9317 12.4986 21.928 12.48 21.928C12.4614 21.928 12.4429 21.9317 12.4258 21.9389C12.4086 21.9461 12.393 21.9567 12.38 21.97C12.3667 21.983 12.3561 21.9986 12.3489 22.0158C12.3417 22.0329 12.338 22.0514 12.338 22.07C12.338 22.0886 12.3417 22.1071 12.3489 22.1242C12.3561 22.1414 12.3667 22.157 12.38 22.17Z" fill="#F06351"/>
</svg>
